# Blender v2.73 (sub 0) OBJ File: ''
# www.blender.org
o Cube
v 0.282904 -0.617186 0.036141
v -0.357948 -0.597329 0.077526
v -0.218385 -0.629524 -0.201752
v 0.397577 0.532329 -0.150205
v 0.028891 0.690938 0.142166
v -0.100236 0.556557 0.393980
v -0.360247 0.488077 0.326627
v 0.300862 0.626429 0.159297
v 0.629557 -0.233303 0.016046
v 0.615207 0.037418 -0.244497
v 0.571126 0.209482 0.279154
v 0.129868 0.347474 0.564559
v -0.268238 -0.037036 0.607526
v -0.609266 -0.202437 0.288351
v -0.634922 0.273420 -0.028587
v -0.593395 0.119142 -0.296343
v -0.594350 -0.363136 0.053650
v -0.581131 -0.221069 -0.242925
v -0.369072 -0.396574 -0.407879
v 0.410021 -0.016263 -0.502830
v 0.387447 -0.334642 -0.425089
v 0.079699 -0.649385 -0.232712
v 0.134180 -0.534751 0.331812
v -0.208588 -0.534756 0.342238
v 0.179412 0.545857 -0.368307
v -0.062744 0.671585 -0.174541
v -0.307790 0.575691 -0.240819
v -0.476167 0.526563 0.008535
v 0.583179 0.292836 -0.085192
v 0.509258 -0.449777 -0.092787
v 0.555662 -0.122458 0.328799
v 0.286638 -0.256498 0.515638
v 0.055284 0.017429 0.628470
v 0.376686 0.405487 0.402082
v -0.453665 0.224529 0.476262
v -0.379652 -0.310967 0.505119
v -0.637574 0.093908 0.259532
v 0.136750 -0.443363 -0.484991
v -0.155874 -0.253642 -0.588339
v 0.159829 0.252684 -0.561627
v -0.155369 0.124025 -0.587235
v -0.380832 0.321304 -0.460193
v 0.138496 -0.598427 -0.378516
v 0.443303 -0.550128 0.024763
v -0.272115 -0.656667 -0.048832
v -0.048076 -0.562808 0.348236
v -0.293936 -0.426483 0.483908
v -0.283754 -0.614977 0.194569
v -0.074409 -0.663270 -0.224348
v -0.308630 -0.568635 -0.332077
v -0.442685 0.560544 0.171211
v 0.041300 0.652024 -0.311130
v -0.190120 0.634235 -0.202820
v -0.406981 0.584655 -0.109089
v -0.039411 0.728497 -0.009672
v 0.178751 0.681054 0.163931
v -0.052669 0.663265 0.272240
v -0.233101 0.526925 0.368049
v 0.368547 0.631732 0.016024
v 0.569929 -0.363858 -0.014461
v 0.694991 -0.110635 -0.125414
v 0.646949 0.272493 0.113544
v 0.500361 0.425351 -0.166317
v 0.584147 0.055633 0.343717
v 0.623752 -0.225416 0.188012
v 0.180612 -0.145427 0.623975
v 0.459085 -0.197590 0.454670
v -0.126814 -0.015586 0.637518
v 0.112055 0.213300 0.623918
v 0.292487 0.349641 0.528109
v 0.355289 0.566500 0.297936
v -0.373228 0.131603 0.592501
v -0.649092 -0.064329 0.267406
v -0.638356 -0.263687 0.158756
v -0.540350 -0.279294 0.438891
v -0.680818 0.180829 0.115527
v -0.582812 0.165223 0.395662
v -0.618527 -0.050587 -0.286107
v -0.578835 0.434491 -0.036516
v -0.516544 0.203075 -0.438150
v -0.626718 -0.305377 -0.084645
v 0.294448 0.100145 -0.590302
v 0.548403 0.042223 -0.405274
v -0.178350 -0.092843 -0.628713
v 0.011167 -0.354236 -0.602767
v -0.300440 -0.313845 -0.533539
v 0.173114 0.445643 -0.493471
v -0.299683 0.252655 -0.531881
v 0.175011 -0.686459 -0.095271
v 0.230398 -0.614970 0.178931
v 0.323823 0.539904 -0.300322
v -0.326270 0.508182 -0.410547
v 0.514542 -0.435347 -0.288663
v 0.602226 0.180665 -0.202802
v 0.220217 -0.426476 0.468270
v -0.014939 0.479482 0.541652
v 0.482283 0.300319 0.380202
v -0.404955 0.376761 0.440622
v -0.304671 -0.227124 0.592558
v -0.645114 0.204940 -0.164773
v -0.517975 -0.520342 0.086840
v -0.498147 -0.307242 -0.358023
v 0.260587 -0.377425 -0.473690
v 0.387213 -0.191156 -0.512914
v 0.011924 0.212264 -0.601110
v -0.037894 -0.751302 0.058897
v 0.387916 -0.621616 -0.249440
v 0.192009 0.746285 -0.117981
v -0.270831 0.710708 0.098638
v 0.545084 0.517179 0.150029
v -0.109409 0.557763 -0.504279
v 0.641168 -0.249077 -0.327886
v 0.748814 0.027807 0.077059
v -0.058257 -0.374313 0.637575
v 0.419481 0.083459 0.610375
v -0.195371 0.343142 0.637461
v -0.551086 -0.079936 0.547541
v 0.498690 -0.478639 0.298965
v 0.165494 0.615822 0.445843
v -0.747098 -0.048722 -0.012730
v -0.614538 0.410381 0.243784
v -0.489957 -0.052452 -0.559484
v -0.529614 -0.478653 0.330241
v -0.543131 0.458602 -0.316816
v -0.506337 -0.562032 -0.156561
v 0.133257 -0.133234 -0.697941
v 0.455638 0.333524 -0.482662
v -0.110924 -0.575238 -0.507593
vn 0.390400 -0.907100 0.157600
vn -0.423400 -0.896100 0.133200
vn -0.258500 -0.931400 -0.256200
vn 0.667000 0.685000 -0.293100
vn 0.031300 0.973500 0.226700
vn -0.283200 0.773400 0.567200
vn -0.403000 0.728800 0.553600
vn 0.405000 0.886400 0.224200
vn 0.904000 -0.424600 0.050000
vn 0.908500 0.190600 -0.371800
vn 0.830900 0.273700 0.484500
vn 0.198100 0.374500 0.905800
vn -0.201700 -0.038400 0.978700
vn -0.924600 -0.219400 0.311300
vn -0.941800 0.323400 -0.092100
vn -0.899400 0.107600 -0.423700
vn -0.901600 -0.431500 0.030800
vn -0.866100 -0.292600 -0.405300
vn -0.587800 -0.490100 -0.643700
vn 0.584200 -0.029400 -0.811100
vn 0.449200 -0.465900 -0.762400
vn 0.069100 -0.950100 -0.304200
vn 0.175400 -0.822100 0.541700
vn -0.164900 -0.829100 0.534300
vn 0.314100 0.733300 -0.603000
vn -0.208700 0.933200 -0.292600
vn -0.339000 0.886300 -0.315600
vn -0.662600 0.748700 -0.020000
vn 0.882500 0.403400 -0.241900
vn 0.824900 -0.564900 -0.019400
vn 0.829000 -0.177000 0.530400
vn 0.422900 -0.392800 0.816600
vn 0.047900 0.009300 0.998800
vn 0.612500 0.485100 0.624200
vn -0.607300 0.360100 0.708200
vn -0.414600 -0.452600 0.789500
vn -0.939000 0.084900 0.333200
vn 0.351400 -0.527300 -0.773700
vn -0.241900 -0.268000 -0.932600
vn 0.162200 0.318700 -0.933900
vn -0.187100 0.203600 -0.961000
vn -0.437900 0.348100 -0.828900
s off
f 1//1 90//1 106//1 89//1
f 1//1 89//1 107//1 44//1
f 1//1 44//1 118//1 90//1
f 2//2 101//2 125//2 45//2
f 2//2 45//2 106//2 48//2
f 2//2 48//2 123//2 101//2
f 3//3 49//3 106//3 45//3
f 3//3 45//3 125//3 50//3
f 3//3 50//3 128//3 49//3
f 4//4 91//4 108//4 59//4
f 4//4 59//4 110//4 63//4
f 4//4 63//4 127//4 91//4
f 5//5 56//5 108//5 55//5
f 5//5 55//5 109//5 57//5
f 5//5 57//5 119//5 56//5
f 6//6 96//6 119//6 57//6
f 6//6 57//6 109//6 58//6
f 6//6 58//6 116//6 96//6
f 7//7 58//7 109//7 51//7
f 7//7 51//7 121//7 98//7
f 7//7 98//7 116//7 58//7
f 8//8 59//8 108//8 56//8
f 8//8 56//8 119//8 71//8
f 8//8 71//8 110//8 59//8
f 9//9 61//9 113//9 65//9
f 9//9 65//9 118//9 60//9
f 9//9 60//9 112//9 61//9
f 10//10 94//10 113//10 61//10
f 10//10 61//10 112//10 83//10
f 10//10 83//10 127//10 94//10
f 11//11 64//11 113//11 62//11
f 11//11 62//11 110//11 97//11
f 11//11 97//11 115//11 64//11
f 12//12 96//12 116//12 69//12
f 12//12 69//12 115//12 70//12
f 12//12 70//12 119//12 96//12
f 13//13 99//13 114//13 68//13
f 13//13 68//13 116//13 72//13
f 13//13 72//13 117//13 99//13
f 14//14 73//14 120//14 74//14
f 14//14 74//14 123//14 75//14
f 14//14 75//14 117//14 73//14
f 15//15 100//15 120//15 76//15
f 15//15 76//15 121//15 79//15
f 15//15 79//15 124//15 100//15
f 16//16 78//16 120//16 100//16
f 16//16 100//16 124//16 80//16
f 16//16 80//16 122//16 78//16
f 17//17 101//17 123//17 74//17
f 17//17 74//17 120//17 81//17
f 17//17 81//17 125//17 101//17
f 18//18 81//18 120//18 78//18
f 18//18 78//18 122//18 102//18
f 18//18 102//18 125//18 81//18
f 19//19 50//19 125//19 102//19
f 19//19 102//19 122//19 86//19
f 19//19 86//19 128//19 50//19
f 20//20 104//20 126//20 82//20
f 20//20 82//20 127//20 83//20
f 20//20 83//20 112//20 104//20
f 21//21 103//21 126//21 104//21
f 21//21 104//21 112//21 93//21
f 21//21 93//21 107//21 103//21
f 22//22 43//22 107//22 89//22
f 22//22 89//22 106//22 49//22
f 22//22 49//22 128//22 43//22
f 23//23 95//23 114//23 46//23
f 23//23 46//23 106//23 90//23
f 23//23 90//23 118//23 95//23
f 24//24 47//24 123//24 48//24
f 24//24 48//24 106//24 46//24
f 24//24 46//24 114//24 47//24
f 25//25 87//25 111//25 52//25
f 25//25 52//25 108//25 91//25
f 25//25 91//25 127//25 87//25
f 26//26 53//26 109//26 55//26
f 26//26 55//26 108//26 52//26
f 26//26 52//26 111//26 53//26
f 27//27 54//27 109//27 53//27
f 27//27 53//27 111//27 92//27
f 27//27 92//27 124//27 54//27
f 28//28 79//28 121//28 51//28
f 28//28 51//28 109//28 54//28
f 28//28 54//28 124//28 79//28
f 29//29 63//29 110//29 62//29
f 29//29 62//29 113//29 94//29
f 29//29 94//29 127//29 63//29
f 30//30 44//30 107//30 93//30
f 30//30 93//30 112//30 60//30
f 30//30 60//30 118//30 44//30
f 31//31 67//31 118//31 65//31
f 31//31 65//31 113//31 64//31
f 31//31 64//31 115//31 67//31
f 32//32 67//32 115//32 66//32
f 32//32 66//32 114//32 95//32
f 32//32 95//32 118//32 67//32
f 33//33 69//33 116//33 68//33
f 33//33 68//33 114//33 66//33
f 33//33 66//33 115//33 69//33
f 34//34 71//34 119//34 70//34
f 34//34 70//34 115//34 97//34
f 34//34 97//34 110//34 71//34
f 35//35 77//35 117//35 72//35
f 35//35 72//35 116//35 98//35
f 35//35 98//35 121//35 77//35
f 36//36 47//36 114//36 99//36
f 36//36 99//36 117//36 75//36
f 36//36 75//36 123//36 47//36
f 37//37 77//37 121//37 76//37
f 37//37 76//37 120//37 73//37
f 37//37 73//37 117//37 77//37
f 38//38 43//38 128//38 85//38
f 38//38 85//38 126//38 103//38
f 38//38 103//38 107//38 43//38
f 39//39 86//39 122//39 84//39
f 39//39 84//39 126//39 85//39
f 39//39 85//39 128//39 86//39
f 40//40 87//40 127//40 82//40
f 40//40 82//40 126//40 105//40
f 40//40 105//40 111//40 87//40
f 41//41 88//41 111//41 105//41
f 41//41 105//41 126//41 84//41
f 41//41 84//41 122//41 88//41
f 42//42 92//42 111//42 88//42
f 42//42 88//42 122//42 80//42
f 42//42 80//42 124//42 92//42
